<svg version="1.0" xmlns="http://www.w3.org/2000/svg"
 width="40px" height="40px" viewBox="0 0 100 100"
 preserveAspectRatio="xMidYMid meet">

<g transform="translate(0.000000,100.000000) scale(0.100000,-0.100000)"
fill="#0d7e78" stroke="none">
<path d="M185 895 c-20 -20 -25 -34 -25 -78 0 -47 -3 -55 -21 -60 -12 -3 -19
-12 -17 -19 3 -9 24 -13 61 -13 39 0 57 -4 57 -12 0 -8 -15 -13 -40 -13 -37 0
-40 -2 -40 -29 0 -21 -6 -30 -21 -34 -12 -3 -19 -12 -17 -19 3 -9 24 -13 61
-13 39 0 57 -4 57 -12 0 -8 -15 -13 -40 -13 -37 0 -40 -2 -40 -29 0 -21 -6
-30 -21 -34 -12 -3 -19 -12 -17 -19 3 -9 24 -13 61 -13 39 0 57 -4 57 -12 0
-8 -15 -13 -40 -13 -37 0 -40 -2 -40 -29 0 -21 -6 -30 -21 -34 -12 -3 -19 -12
-17 -19 3 -9 24 -13 61 -13 39 0 57 -4 57 -12 0 -8 -15 -13 -40 -13 -37 0 -40
-2 -40 -29 0 -21 -6 -30 -21 -34 -12 -3 -19 -12 -17 -19 3 -9 24 -13 61 -13
39 0 57 -4 57 -12 0 -8 -15 -13 -40 -13 l-40 0 0 -45 c0 -35 6 -52 25 -70 l24
-25 291 0 291 0 24 25 25 24 0 371 0 371 -25 24 -24 25 -291 0 -291 0 -24 -25z
m355 -295 l0 -60 60 0 60 0 0 -40 0 -40 -60 0 -60 0 0 -60 0 -60 -40 0 -40 0
0 60 0 60 -60 0 -60 0 0 40 0 40 60 0 60 0 0 60 0 60 40 0 40 0 0 -60z"/>
</g>
</svg>